<svg width="845" height="844" viewBox="0 0 845 844" fill="none" xmlns="http://www.w3.org/2000/svg">
<path fill-rule="evenodd" clip-rule="evenodd" d="M633.327 201.925C666.9 252.446 623.729 319.472 632.812 379.446C642.333 442.303 709.324 497.797 687.167 557.385C665.186 616.496 592.346 642.914 530.414 654.821C476.297 665.225 428.219 623.945 373.466 617.696C311.185 610.589 242.382 650.437 190.02 615.974C135.871 580.334 108.681 508.914 109.706 444.097C110.681 382.448 162.606 337.526 195.25 285.22C225.71 236.413 243.915 177.179 293.978 148.83C345.898 119.43 408.73 121.729 467.679 130.952C528.516 140.47 599.246 150.639 633.327 201.925Z" fill="url(#paint0_linear)"/>
<defs>
<linearGradient id="paint0_linear" x1="223.845" y1="209.797" x2="620.691" y2="634.687" gradientUnits="userSpaceOnUse">
<stop stop-color="#283048"/>
<stop offset="1" stop-color="#859398"/>
</linearGradient>
</defs>
</svg>
