<svg width="84" height="57" viewBox="0 0 84 57" fill="none" xmlns="http://www.w3.org/2000/svg">
<path fill-rule="evenodd" clip-rule="evenodd" d="M9.82815 1.75318C9.09959 3.45391 0.791489 26.0308 0.791489 26.3103C0.791489 26.6408 2.05589 27.5848 21.0393 41.4314C28.4966 46.8706 36.3311 52.5852 38.4491 54.1305L42.3002 56.9397L47.3075 53.2805C50.0616 51.2681 56.5452 46.5314 61.7157 42.755C66.8861 38.9787 74.0111 33.7727 77.5487 31.1865C82.3333 27.6889 83.9253 26.3382 83.7623 25.9144C83.451 25.1035 75.2781 3.13213 74.842 1.93396L74.4804 0.939697H42.3288H10.1767L9.82815 1.75318ZM75.3547 14.317C77.2945 19.9843 78.8775 24.8652 78.8724 25.1635C78.867 25.4618 78.0148 26.3042 76.9782 27.0356C75.1721 28.3097 66.1593 34.9445 50.1701 46.77C46.0666 49.8045 42.5826 52.3263 42.4278 52.3741C41.9368 52.5245 5.45824 25.4119 5.60757 25.0073C5.68603 24.7951 7.34671 19.9427 9.29809 14.2245L12.8462 3.82775L42.3367 3.92031L71.8273 4.01287L75.3547 14.317ZM17.7852 19.2019V30.9787L20.5273 30.8731L23.2694 30.7675L23.2691 21.6384C23.2687 16.6172 23.3772 12.5122 23.5099 12.5154C23.6426 12.5187 24.6615 14.9186 25.7744 17.8483L27.7977 23.175H29.91H32.0223L33.9133 18.2941C34.9531 15.6096 35.9706 13.1691 36.1741 12.8708C36.4312 12.4941 36.5505 15.1706 36.5654 21.6384L36.5867 30.9483H42.0102H47.4337V35.6484V40.3486H50.5071H53.5804V35.6904V31.0325L57.1057 30.8785C59.7737 30.7621 60.9885 30.5383 62.1018 29.9587C63.4566 29.2533 66.2143 26.6061 66.2512 25.9759C66.2598 25.8273 66.411 24.9737 66.5871 24.0788C66.9765 22.1015 66.5072 19.6914 65.4409 18.1939C65.0189 17.6013 63.7639 16.6931 62.6525 16.1754C60.7127 15.2722 60.3681 15.2339 54.1227 15.2274L47.6145 15.2209L47.5151 20.9153L47.4153 26.6097H44.8937H42.3718V17.0171V7.42481L38.1512 7.5264L33.9306 7.62836L32.1134 11.6958C31.1136 13.9331 30.1978 15.7632 30.0774 15.7632C29.9574 15.7632 29.1109 13.9331 28.1969 11.6958L26.5344 7.62836L22.1598 7.52676L17.7852 7.42517V19.2019ZM58.3827 19.865C60.0488 20.5613 60.6096 21.4012 60.542 23.0972C60.4484 25.4433 59.2592 26.3703 56.1153 26.5482L53.5804 26.6914V23.0351V19.3787H55.3998C56.4006 19.3787 57.7428 19.5974 58.3827 19.865Z" fill="white"/>
</svg>
