<svg width="244" height="56" viewBox="0 0 244 56" fill="none" xmlns="http://www.w3.org/2000/svg">
<path fill-rule="evenodd" clip-rule="evenodd" d="M9.03666 0.813486C8.3081 2.51421 0 25.0912 0 25.3706C0 25.7011 1.2644 26.6451 20.2478 40.4917C27.7051 45.9309 35.5396 51.6455 37.6576 53.1908L41.5087 56L46.5161 52.3408C49.2701 50.3284 55.7537 45.5917 60.9242 41.8153C66.0946 38.039 73.2196 32.833 76.7572 30.2468C81.5418 26.7492 83.1338 25.3985 82.9708 24.9747C82.6595 24.1638 74.4866 2.19243 74.0505 0.99426L73.689 0H41.5373H9.38521L9.03666 0.813486ZM74.5632 13.3773C76.503 19.0446 78.086 23.9255 78.0809 24.2238C78.0755 24.5221 77.2233 25.3645 76.1867 26.0959C74.3806 27.37 65.3678 34.0048 49.3786 45.8303C45.2752 48.8648 41.7911 51.3866 41.6363 51.4344C41.1453 51.5848 4.66675 24.4722 4.81608 24.0676C4.89454 23.8554 6.55522 19.003 8.50661 13.2848L12.0547 2.88806L41.5452 2.98061L71.0358 3.07317L74.5632 13.3773ZM16.9937 18.2622V30.039L19.7358 29.9334L22.4779 29.8278L22.4776 20.6987C22.4772 15.6775 22.5857 11.5725 22.7184 11.5757C22.8511 11.579 23.87 13.9789 24.9829 16.9086L27.0062 22.2353H29.1185H31.2308L33.1218 17.3544C34.1616 14.6699 35.1791 12.2294 35.3827 11.9311C35.6397 11.5544 35.7591 14.2309 35.7739 20.6987L35.7952 30.0086H41.2187H46.6422V34.7087V39.4089H49.7156H52.7889V34.7507V30.0928L56.3142 29.9388C58.9822 29.8224 60.1971 29.5986 61.3103 29.019C62.6651 28.3136 65.4228 25.6664 65.4597 25.0362C65.4684 24.8876 65.6195 24.034 65.7956 23.1391C66.185 21.1618 65.7157 18.7518 64.6494 17.2542C64.2275 16.6616 62.9725 15.7534 61.861 15.2357C59.9212 14.3325 59.5766 14.2942 53.3312 14.2877L46.823 14.2812L46.7236 19.9756L46.6238 25.67H44.1022H41.5803V16.0774V6.48511L37.3597 6.5867L33.1391 6.68866L31.3219 10.7561C30.3222 12.9934 29.4063 14.8235 29.2859 14.8235C29.1659 14.8235 28.3194 12.9934 27.4054 10.7561L25.7429 6.68866L21.3683 6.58706L16.9937 6.48547V18.2622ZM228.422 10.4455C227.084 12.9026 227.078 12.9337 227.88 13.0783C229.24 13.3235 229.716 13.0382 231.319 11.0135C233.606 8.12618 233.618 7.95372 231.532 7.95661L229.776 7.95878L228.422 10.4455ZM159.451 20.066V30.3701H161.259H163.067V20.066V9.76183H161.259H159.451V20.066ZM92.9229 20.4275V30.3701H94.9032H96.8839L96.9822 23.7986L97.0809 17.2271L98.5272 21.4478L99.9735 25.6685L101.42 25.6675L102.866 25.6664L104.377 21.42L105.888 17.1736L105.914 23.7719L105.939 30.3701H107.928H109.917V20.4275V10.4849H107.611H105.306L103.544 15.3615C102.574 18.0438 101.694 20.2402 101.588 20.2424C101.482 20.2449 100.587 18.0514 99.5993 15.368L97.8041 10.4893L95.3635 10.4871L92.9229 10.4849V20.4275ZM174.999 20.3914V30.3701H176.987H178.976V27.1556V23.9414L181.631 23.8073C183.883 23.6934 184.493 23.5152 185.651 22.6319C187.562 21.1745 188.498 18.9094 188.303 16.2133C188.129 13.8126 187.362 12.5168 185.446 11.3888C184.432 10.7915 183.417 10.6436 179.609 10.5392L174.999 10.4123V20.3914ZM217.664 13.3773C217.664 15.3055 217.584 15.5466 216.941 15.5466C216.338 15.5466 216.218 15.7878 216.218 16.9928C216.218 18.1678 216.345 18.439 216.898 18.439C217.521 18.439 217.591 18.8284 217.725 23.0488C217.843 26.7879 218.003 27.882 218.573 28.8419C219.415 30.2588 221.357 30.9107 223.694 30.5599L225.257 30.3257V28.7439V27.1617L224.054 27.3566C221.955 27.6976 221.601 26.9557 221.719 22.4688L221.822 18.6198L223.539 18.5095L225.257 18.3992V16.9729V15.5466H223.449H221.641V13.3773V11.208H219.652H217.664V13.3773ZM183.085 14.8499C183.854 15.4544 184.038 15.9031 184.038 17.1736C184.038 19.2138 182.867 20.2468 180.554 20.2468H178.976V17.1736V14.1004H180.554C181.604 14.1004 182.452 14.3517 183.085 14.8499ZM118.48 15.188C116.649 15.5231 115.352 16.5329 114.264 18.4712C113.532 19.7742 113.368 20.562 113.369 22.7776C113.37 27.5927 115.399 30.3463 119.177 30.6597C121.742 30.8723 122.694 30.5842 124.341 29.096C126.08 27.5255 126.676 25.5474 126.495 21.954C126.386 19.8067 126.171 18.9915 125.402 17.8302C123.977 15.6775 121.328 14.6662 118.48 15.188ZM149.508 15.0643C149.111 15.1464 148.432 15.2881 147.999 15.3799C146.765 15.6413 144.949 17.3663 144.222 18.9665C143.78 19.9384 143.558 21.2746 143.558 22.9584C143.558 26.2514 144.407 28.1669 146.47 29.5328C147.838 30.4381 148.332 30.5509 150.928 30.5509C152.588 30.5509 154.354 30.3372 155.022 30.0552C156.14 29.5838 156.197 29.4645 156.197 27.6249V25.6902L154.516 26.584C151.437 28.2214 148.473 27.5276 147.578 24.9596L147.203 23.8836L151.79 23.7823L156.378 23.6815L156.349 22.2353C156.274 18.4672 154.787 15.8286 152.476 15.3644C151.838 15.236 151.072 15.0827 150.774 15.0235C150.475 14.9642 149.906 14.9826 149.508 15.0643ZM192.354 15.5068C191.576 15.7216 191.435 15.9942 191.34 17.4592C191.279 18.396 191.361 19.1603 191.521 19.1581C191.681 19.156 192.625 18.9079 193.618 18.6064C195.572 18.0135 197.213 18.1812 198.23 19.0775C199.346 20.0624 198.966 20.5121 196.79 20.784C192.126 21.3665 190.546 22.7158 190.546 26.1165C190.546 28.087 190.652 28.3791 191.776 29.5024C193.339 31.0658 195.211 31.1782 197.201 29.8278C198.807 28.7377 198.862 28.7316 198.862 29.647C198.862 30.2736 199.103 30.3701 200.67 30.3701H202.478V24.3865C202.478 17.6461 202.24 16.7538 200.179 15.7762C198.889 15.1641 194.182 15.0021 192.354 15.5068ZM235.025 15.8543C233.178 16.8449 232.428 18.0507 232.428 20.0291C232.428 22.7646 233.818 24.2035 237.02 24.7828C237.809 24.9252 238.739 25.1891 239.087 25.3688C239.802 25.7383 239.933 26.9412 239.301 27.332C238.404 27.8867 235.632 27.5233 233.897 26.6234L232.127 25.7047V27.6177C232.127 29.3513 232.22 29.5747 233.121 29.9956C233.668 30.2512 235.186 30.5411 236.494 30.6402C240.639 30.9537 243.692 28.8769 243.695 25.7423C243.698 23.1373 242.339 21.8314 238.743 20.9865C236.705 20.5078 235.971 19.929 236.303 19.0627C236.768 17.8508 239.032 17.7915 241.285 18.9322L242.974 19.7869V17.8829C242.974 16.0723 242.917 15.9595 241.835 15.582C240.013 14.9468 236.452 15.0893 235.025 15.8543ZM128.357 15.787C128.357 15.9194 129.365 19.2547 130.598 23.1988L132.84 30.3701H135.045H137.249L139.492 23.3481C140.725 19.4857 141.735 16.1421 141.735 15.9172C141.735 15.6518 141.074 15.547 139.849 15.6182L137.963 15.7274L136.685 20.3097C135.982 22.83 135.306 24.9921 135.182 25.1143C135.059 25.2361 134.345 23.1337 133.596 20.4413L132.235 15.5466H130.296C129.229 15.5466 128.357 15.6547 128.357 15.787ZM206.455 22.9584V30.3701H208.263H210.071V25.5615C210.071 22.3036 210.211 20.613 210.505 20.3191C210.743 20.0804 211.882 19.8852 213.036 19.8852H215.133V17.7159C215.133 15.5701 215.122 15.5466 214.099 15.5466C213.53 15.5466 212.465 15.9534 211.732 16.4505C211 16.9476 210.326 17.3544 210.236 17.3544C210.145 17.3544 210.071 16.9476 210.071 16.4505C210.071 15.607 209.95 15.5466 208.263 15.5466H206.455V22.9584ZM152.05 18.9253C152.342 19.3429 152.582 19.9738 152.582 20.3274C152.582 20.8853 152.229 20.9699 149.904 20.9699C147.308 20.9699 147.232 20.9445 147.425 20.1564C147.99 17.8475 150.776 17.106 152.05 18.9253ZM121.848 19.033C122.221 19.3874 122.429 20.4807 122.514 22.5191C122.623 25.1266 122.542 25.6107 121.855 26.4835C120.921 27.6704 119.294 27.8158 118.281 26.8031C117.094 25.6165 116.902 21.4243 117.942 19.413C118.626 18.089 120.65 17.8923 121.848 19.033ZM57.5912 18.9253C59.2573 19.6216 59.8181 20.4615 59.7505 22.1575C59.6569 24.5036 58.4677 25.4306 55.3238 25.6085L52.7889 25.7517V22.0954V18.439H54.6083C55.6091 18.439 56.9513 18.6577 57.5912 18.9253ZM198.862 25.115C198.862 26.9629 198.279 27.4777 196.187 27.4777C195.295 27.4777 194.798 27.267 194.536 26.7785C193.985 25.7488 194.066 25.371 195.05 24.3883C195.699 23.7382 196.329 23.5007 197.4 23.5007H198.862V25.115ZM132.515 36.1549C132.066 37.0226 132.05 37.2396 132.438 37.2396C132.704 37.2396 133.389 36.7515 133.961 36.1549L135 35.0703H134.038C133.334 35.0703 132.925 35.362 132.515 36.1549ZM214.27 35.9615C213.563 37.0414 213.546 37.2396 214.161 37.2396C214.422 37.2396 215.104 36.7515 215.675 36.1549L216.714 35.0703H215.784C215.195 35.0703 214.641 35.3968 214.27 35.9615ZM143.904 36.5165C143.904 37.0469 144.145 37.2396 144.808 37.2396C145.471 37.2396 145.712 37.0469 145.712 36.5165C145.712 35.9861 145.471 35.7934 144.808 35.7934C144.145 35.7934 143.904 35.9861 143.904 36.5165ZM234.899 36.0345C234.298 36.6343 234.722 37.2396 235.742 37.2396C236.586 37.2396 236.827 37.079 236.827 36.5165C236.827 35.9998 236.586 35.7934 235.983 35.7934C235.519 35.7934 235.031 35.9018 234.899 36.0345ZM95.1035 36.9456C94.9079 37.4055 94.1924 39.2867 93.5134 41.1262L92.279 44.4706H93.266C93.9682 44.4706 94.3721 44.2095 94.6649 43.5667C95.0055 42.8194 95.3302 42.6628 96.5397 42.6628C97.7676 42.6628 98.0579 42.8082 98.3464 43.5667C98.6039 44.2439 98.9528 44.4706 99.7385 44.4706H100.787L99.2811 40.4031C97.8204 36.4579 97.7401 36.3324 96.6171 36.2225C95.6922 36.1321 95.3877 36.2778 95.1035 36.9456ZM103.877 38.3719C100.823 39.2313 100.812 43.439 103.861 44.4384C105.442 44.9565 107.17 44.4745 107.317 43.4748C107.421 42.7705 107.345 42.7409 106.377 43.1064C105.063 43.6021 104.245 43.3064 103.715 42.1454C103.386 41.4212 103.423 41.0673 103.908 40.3276C104.52 39.3937 106.045 39.0636 106.482 39.7704C106.605 39.9693 106.858 40.132 107.045 40.132C107.448 40.132 107.507 38.7968 107.114 38.5762C106.392 38.1713 104.92 38.0784 103.877 38.3719ZM110.821 38.2215C109.381 38.5697 108.47 39.8037 108.47 41.4043C108.47 43.1082 109.146 43.9387 110.957 44.4579C112.794 44.9847 114.518 44.5476 114.718 43.5038C114.853 42.7959 114.77 42.6708 114.3 42.8736C112.459 43.6672 110.278 43.2518 110.278 42.1078C110.278 41.6971 110.805 41.5782 112.628 41.5782C115.148 41.5782 115.313 41.4205 114.643 39.6576C114.358 38.9074 112.526 37.8567 111.761 38.0046C111.641 38.0277 111.218 38.1254 110.821 38.2215ZM118.18 38.2197C116.821 38.4262 115.924 39.5296 116.206 40.6501C116.379 41.3392 116.816 41.6704 118.017 42.0203C118.887 42.2745 119.658 42.6447 119.73 42.8436C119.915 43.3602 117.684 43.5049 116.803 43.0334C116.174 42.6964 116.063 42.7442 116.063 43.3519C116.063 44.3397 116.648 44.6108 118.709 44.5797C120.896 44.5468 122.071 43.5999 121.711 42.1631C121.532 41.4534 121.107 41.1277 119.895 40.7744C117.9 40.1927 117.93 39.5712 119.95 39.6482C121.243 39.6974 121.487 39.5969 121.487 39.0155C121.487 38.5751 121.235 38.3242 120.793 38.3242C120.412 38.3242 119.883 38.2682 119.618 38.1995C119.353 38.1308 118.706 38.1402 118.18 38.2197ZM124.869 38.2056C123.762 38.4327 122.855 39.569 122.995 40.5542C123.087 41.2047 123.506 41.5214 124.829 41.9397C125.773 42.238 126.546 42.6856 126.547 42.934C126.549 43.4853 124.614 43.537 123.632 43.0117C123.051 42.7004 122.933 42.7575 122.933 43.3519C122.933 44.3292 123.42 44.5541 125.536 44.5541C127.765 44.5541 128.947 43.6252 128.58 42.1631C128.398 41.439 127.973 41.1266 126.635 40.7365C124.585 40.1388 124.683 39.5669 126.82 39.6482C128.113 39.6974 128.357 39.5969 128.357 39.0155C128.357 38.6001 128.104 38.3224 127.724 38.3192C127.376 38.3166 126.766 38.2541 126.368 38.1803C125.97 38.1066 125.296 38.1181 124.869 38.2056ZM131.972 38.2179C130.611 38.7154 129.803 39.8998 129.803 41.3974C129.803 43.8386 131.909 45.267 134.331 44.4677C135.811 43.9792 136.311 43.204 136.311 41.3974C136.311 39.6323 135.827 38.8398 134.457 38.3622C133.224 37.9327 132.818 37.9092 131.972 38.2179ZM148.982 38.591C146.605 39.803 146.73 43.3031 149.186 44.3295C151.594 45.3354 154.028 43.8469 154.028 41.3688C154.028 38.8673 151.341 37.3885 148.982 38.591ZM157.019 38.3568C154.542 39.09 154.829 41.5416 157.467 42.1707C158.185 42.3421 158.759 42.6447 158.743 42.8436C158.708 43.2709 156.664 43.28 155.714 42.857C155.16 42.6104 155.069 42.7026 155.171 43.4109C155.332 44.5327 157.407 45.0093 159.354 44.3715C160.585 43.9684 160.717 43.8028 160.717 42.6614C160.717 41.4708 160.617 41.3659 159.001 40.8551C156.633 40.1063 156.664 39.235 159.05 39.5177C160.672 39.7097 160.803 39.6685 160.635 39.0256C160.534 38.6399 160.267 38.322 160.042 38.3192C159.817 38.3166 159.307 38.2461 158.909 38.163C158.511 38.0798 157.661 38.1669 157.019 38.3568ZM169.756 38.2996C169.358 38.4569 168.423 38.5054 167.677 38.4074L166.321 38.2291V42.4343V46.6399H167.406C168.37 46.6399 168.491 46.5195 168.491 45.5552C168.491 44.5342 168.574 44.4706 169.91 44.4706C171.014 44.4706 171.498 44.2583 172.08 43.5179C173.15 42.1577 173.086 39.9942 171.942 38.8503C170.988 37.8961 170.858 37.8636 169.756 38.2996ZM175.632 38.223C174.984 38.3202 174.637 38.5921 174.637 39.0036C174.637 39.5173 174.951 39.6309 176.319 39.6124C178.555 39.582 178.782 40.3319 176.635 40.654C174.802 40.9288 173.801 41.973 174.138 43.2597C174.398 44.2547 175.838 44.9066 176.896 44.5085C177.344 44.34 178.239 44.2807 178.886 44.3773L180.061 44.5526V41.8443C180.061 40.1099 179.898 39.0068 179.609 38.7772C179.035 38.322 176.927 38.0281 175.632 38.223ZM189.01 38.211C188.366 38.3155 188.015 38.595 188.015 39.0036C188.015 39.5173 188.329 39.6309 189.697 39.6124C190.735 39.5983 191.438 39.7625 191.535 40.0416C191.628 40.3098 191.381 40.4935 190.926 40.4935C190.506 40.4935 189.597 40.7292 188.908 41.0174C187.881 41.4462 187.654 41.7336 187.654 42.6003C187.654 43.7717 188.329 44.5251 189.342 44.4847C189.706 44.4698 190.858 44.4608 191.902 44.4644L193.8 44.4706V42.1606C193.8 40.4852 193.626 39.646 193.168 39.1059C192.505 38.326 190.699 37.9374 189.01 38.211ZM202.84 38.3184C202.541 38.5079 201.687 38.5657 200.941 38.4471L199.585 38.2317V41.3511C199.585 44.4214 199.6 44.4706 200.472 44.4706C201.307 44.4706 201.365 44.3393 201.466 42.2109C201.57 40.0452 201.615 39.9465 202.568 39.8369L203.563 39.7223V42.0966V44.4706H204.647H205.732V42.0966V39.7223L206.726 39.8369C207.679 39.9465 207.725 40.0452 207.828 42.2109C207.93 44.3393 207.988 44.4706 208.823 44.4706C209.684 44.4706 209.709 44.3935 209.709 41.803C209.709 40.0969 209.547 39.0097 209.257 38.7863C208.365 38.0957 207.639 38.039 206.535 38.574C205.527 39.0618 205.328 39.0585 204.588 38.5401C203.63 37.8694 203.56 37.8607 202.84 38.3184ZM213.424 38.3741C212.079 38.7523 211.445 39.7209 211.445 41.3974C211.445 43.0833 212.051 43.9904 213.497 44.4677C215.919 45.267 218.025 43.8386 218.025 41.3974C218.025 38.9833 215.996 37.6503 213.424 38.3741ZM228.511 38.591C226.907 39.3984 226.244 41.4498 227.095 42.9694C228.197 44.9359 232.881 45.2949 233.15 43.4333C233.255 42.7062 233.181 42.6534 232.541 42.9962C230.99 43.8259 228.872 43.2789 228.872 42.0482C228.872 41.7148 229.503 41.5782 231.042 41.5782C233.185 41.5782 233.211 41.5659 233.211 40.5495C233.211 38.535 230.701 37.489 228.511 38.591ZM239.864 38.479C239.247 38.7472 238.634 39.252 238.5 39.6005C238.129 40.5662 239.17 41.8229 240.627 42.1707C241.345 42.3421 241.92 42.6447 241.903 42.8436C241.869 43.2651 239.829 43.2825 238.906 42.8689C238.417 42.6498 238.273 42.7536 238.273 43.3259C238.273 44.3198 238.742 44.5501 240.824 44.5816C242.937 44.6137 244.151 43.7453 243.985 42.3201C243.897 41.5695 243.557 41.2962 242.162 40.8551C239.791 40.1056 239.825 39.235 242.215 39.5181C243.734 39.6981 243.975 39.6417 243.9 39.125C243.744 38.0682 241.597 37.7244 239.864 38.479ZM138.119 41.3974C138.119 44.4344 138.129 44.4706 139.023 44.4706C139.887 44.4706 139.927 44.374 139.927 42.3013V40.132H141.192C142.301 40.132 142.458 40.0199 142.458 39.2281C142.458 38.2266 141.514 37.9869 140.677 38.7762C140.294 39.1377 140.165 39.1377 140.032 38.7762C139.941 38.5278 139.473 38.3242 138.993 38.3242C138.137 38.3242 138.119 38.3886 138.119 41.3974ZM143.904 41.3974C143.904 44.4344 143.914 44.4706 144.808 44.4706C145.701 44.4706 145.712 44.4344 145.712 41.3974C145.712 38.3604 145.701 38.3242 144.808 38.3242C143.914 38.3242 143.904 38.3604 143.904 41.3974ZM182.23 41.3974C182.23 44.4344 182.241 44.4706 183.134 44.4706C183.998 44.4706 184.038 44.374 184.038 42.3013V40.132H185.303C186.412 40.132 186.569 40.0199 186.569 39.2281C186.569 38.2266 185.625 37.9869 184.788 38.7762C184.405 39.1377 184.276 39.1377 184.144 38.7762C184.052 38.5278 183.585 38.3242 183.104 38.3242C182.249 38.3242 182.23 38.3886 182.23 41.3974ZM219.11 38.4927C219.11 38.6117 219.613 40.0145 220.229 41.6103C221.321 44.4416 221.375 44.5085 222.476 44.4004C223.529 44.2974 223.683 44.0888 224.765 41.307L225.925 38.3242H224.878C223.918 38.3242 223.782 38.492 223.245 40.3395C222.922 41.448 222.552 42.2499 222.421 42.1216C222.29 41.9936 221.926 41.1273 221.612 40.1967C221.144 38.8105 220.867 38.4844 220.075 38.3907C219.544 38.3278 219.11 38.3738 219.11 38.4927ZM235.019 41.3974C235.019 44.4344 235.03 44.4706 235.923 44.4706C236.816 44.4706 236.827 44.4344 236.827 41.3974C236.827 38.3604 236.816 38.3242 235.923 38.3242C235.03 38.3242 235.019 38.3604 235.019 41.3974ZM97.0795 39.7643C97.21 40.3576 97.3449 40.9516 97.3796 41.0843C97.4743 41.4469 95.8805 41.6147 95.6643 41.2647C95.4376 40.8977 96.2309 38.6858 96.5892 38.6858C96.7288 38.6858 96.9493 39.1713 97.0795 39.7643ZM112.94 39.9512C113.103 40.3771 112.84 40.4935 111.713 40.4935C110.366 40.4935 109.961 40.2075 110.519 39.65C110.977 39.1919 112.732 39.4103 112.94 39.9512ZM134.069 39.8427C134.672 40.4451 134.613 42.4831 133.978 43.0099C133.183 43.6697 132.208 43.3132 131.825 42.2221C131.158 40.3272 132.807 38.5802 134.069 39.8427ZM151.899 40.4031C152.638 42.3128 151.207 44.1343 149.852 43.0099C149.218 42.4831 149.159 40.4451 149.761 39.8427C150.51 39.0943 151.493 39.3521 151.899 40.4031ZM170.454 39.9769C171.62 41.1439 170.788 43.3859 169.188 43.3859C168.594 43.3859 168.491 43.1231 168.491 41.6082C168.491 39.991 168.727 39.5437 169.64 39.4374C169.775 39.4219 170.141 39.6645 170.454 39.9769ZM215.928 40.3272C216.758 42.1483 215.214 44.1415 213.85 43.0099C213.215 42.4831 213.157 40.4451 213.759 39.8427C214.476 39.1258 215.484 39.351 215.928 40.3272ZM231.315 40.0416C231.415 40.3467 231.043 40.4935 230.168 40.4935C228.932 40.4935 228.57 40.1934 229.13 39.6334C229.53 39.2335 231.149 39.5361 231.315 40.0416ZM178.188 42.3916C178.029 43.5045 176.084 43.8053 176.084 42.717C176.084 41.9708 176.528 41.6552 177.645 41.6067C178.127 41.5858 178.272 41.7962 178.188 42.3916ZM191.566 42.3916C191.422 43.4004 189.933 43.7323 189.588 42.8324C189.332 42.1646 189.99 41.5923 191.023 41.5836C191.5 41.5796 191.649 41.8023 191.566 42.3916Z" fill="white"/>
</svg>
